{"title":"Gullivers Travels 2010 R5 x264","uid":6151064,"size":786822693,"categoryP":"video","categoryS":"movies","magnet":"?xt=urn:btih:eb49a1e27c3c7aaedf3d152c382bc1e2b5ce4774&amp;dn=Gullivers+Travels+2010+R5+x264+&amp;tr=udp%3A%2F%2Ftracker.openbittorrent.com%3A80&amp;tr=udp%3A%2F%2Fopen.demonii.com%3A1337&amp;tr=udp%3A%2F%2Ftracker.coppersurfer.tk%3A6969&amp;tr=udp%3A%2F%2Fexodus.desync.com%3A6969","seeders":0,"leechers":1,"uploader":"linuxero2011","files":10,"time":1296879895,"description":"Genre: Adventure | Comedy | Fantasy\nLanguage:English\nIMDb:http://www.imdb.com/title/tt1320261/\nSourcegrin.gifVD5/Audio:T0XiC-iNK.Thx.\nimages and more info http://tracker.btarena.org/index.php\n\n\n\n\nSubtitles:Romana\n\n\nFormat : MPEG-4\nFormat profile : Base Media\nCodec ID : isom\nFile size : 749 MiB\nDuration : 1h 21mn\nOverall bit rate : 1 289 Kbps\nMovie name : Gullivers Travels 2010 R5 x264 Feel-Free\n\n\nVideo\nFormat settings, CABAC : Yes\nFormat settings, ReFrames : 4 frames\nFormat settings, GOP : M=4, N=16\nCodec ID : avc1\nCodec ID/Info : Advanced Video Coding\nDuration : 1h 21mn\nBit rate mode : Variable\nBit rate : 897 Kbps\nWidth : 720 pixels\nHeight : 304 pixels\nDisplay aspect ratio : 2.35:1\nFrame rate mode : Constant\nFrame rate : 25.000 fps\nColor space : YUV\nChroma subsampling : 4:2:0\nBit depth : 8 bits\nScan type : Progressive\nBits/(Pixel*Frame) : 0.164\nStream size : 522 MiB (70%)\nWriting library : x264\n\nAudio\nID : 2\nFormat : AAC\nFormat/Info : Advanced Audio Codec\nFormat version : Version 4\nFormat profile : LC\nCodec ID : 40\nDuration : 1h 21mn\nBit rate mode : Variable\nBit rate : 384 Kbps\nChannel(s) : 6 channels\nChannel positions : Front: L C R, Side: L R, LFE\nSampling rate : 48.0 KHz\nStream size : 223 MiB (30%)\n\n\n\nPlot:\nTravel writer Lemuel Gulliver takes an assignment in Bermuda, but ends up on the island of Liliput, where he towers over its tiny citizens\n\nTRAILER:\n","torrent":{"xt":"urn:btih:eb49a1e27c3c7aaedf3d152c382bc1e2b5ce4774","amp;dn":"Gullivers+Travels+2010+R5+x264+","amp;tr":["udp%3A%2F%2Ftracker.openbittorrent.com%3A80","udp%3A%2F%2Fopen.demonii.com%3A1337","udp%3A%2F%2Ftracker.coppersurfer.tk%3A6969","udp%3A%2F%2Fexodus.desync.com%3A6969"],"infoHash":"eb49a1e27c3c7aaedf3d152c382bc1e2b5ce4774","infoHashBuffer":{"type":"Buffer","data":[235,73,161,226,124,60,122,174,223,61,21,44,56,43,193,226,181,206,71,116]},"announce":[],"urlList":[]}}